<mxfile host="drawio-plugin" modified="2023-02-17T12:52:41.743Z" agent="5.0 (Macintosh; Intel Mac OS X 10_15_7) AppleWebKit/537.36 (KHTML, like Gecko) Chrome/104.0.5112.102 Safari/537.36" etag="LsGF_i-nfcv07abuRO3s" version="20.5.3" type="embed"><diagram id="23iRSUPoRavnBvh4doch" name="Page-1"><mxGraphModel dx="2084" dy="1076" grid="1" gridSize="10" guides="1" tooltips="1" connect="1" arrows="1" fold="1" page="1" pageScale="1" pageWidth="827" pageHeight="1169" math="0" shadow="0"><root><mxCell id="0"/><mxCell id="1" parent="0"/><mxCell id="2" value="Game Over" style="strokeWidth=1;shadow=0;dashed=0;align=center;html=1;shape=mxgraph.mockup.containers.window;align=left;verticalAlign=top;spacingLeft=8;strokeColor2=#008cff;strokeColor3=#c4c4c4;fontColor=#666666;mainText=;fontSize=17;labelBackgroundColor=none;" vertex="1" parent="1"><mxGeometry x="139" y="270" width="550" height="380" as="geometry"/></mxCell><mxCell id="3" value="&lt;font style=&quot;font-size: 28px;&quot;&gt;Game Over&lt;/font&gt;" style="text;html=1;strokeColor=none;fillColor=none;align=center;verticalAlign=middle;whiteSpace=wrap;rounded=0;" vertex="1" parent="1"><mxGeometry x="284" y="350" width="260" height="70" as="geometry"/></mxCell><mxCell id="4" value="&lt;font style=&quot;font-size: 18px;&quot;&gt;You won&lt;/font&gt;" style="text;html=1;strokeColor=none;fillColor=none;align=center;verticalAlign=middle;whiteSpace=wrap;rounded=0;" vertex="1" parent="1"><mxGeometry x="284" y="425" width="260" height="70" as="geometry"/></mxCell><mxCell id="5" value="Setup" style="rounded=1;fillColor=#0057D8;align=center;strokeColor=none;html=1;fontColor=#ffffff;fontSize=12;sketch=0;" vertex="1" parent="1"><mxGeometry x="585" y="600" width="86" height="33" as="geometry"/></mxCell></root></mxGraphModel></diagram></mxfile>